<svg xmlns="http://www.w3.org/2000/svg" width="1600" height="900" viewBox="0 0 1600 900" role="img" aria-labelledby="title desc">
  <title id="title">Pulse Icons Sheet</title>
  <desc id="desc">Placeholder icon sheet for NOFIDA media bank.</desc>
  <rect width="1600" height="900" rx="48" fill="#08111f"/>
  <g fill="none" stroke="#38bdf8" stroke-width="18" stroke-linecap="round" stroke-linejoin="round">
    <rect x="220" y="220" width="170" height="170" rx="34"/>
    <circle cx="625" cy="305" r="80"/>
    <path d="M920 365h170l-85-120z"/>
    <path d="M1215 230v150h150"/>
    <path d="M1270 380c0-90 72-162 162-162"/>
    <path d="M255 605h105l55 88 70-152 68 124h100"/>
    <path d="M640 560l80 140 98-200 90 156 84-104"/>
    <path d="M1110 610c0-44 36-80 80-80h84c44 0 80 36 80 80s-36 80-80 80h-84c-44 0-80-36-80-80z"/>
  </g>
  <text x="120" y="150" fill="#f8fafc" font-family="Inter, Arial, sans-serif" font-size="48" font-weight="700">Pulse Icons</text>
</svg>
