<svg xmlns="http://www.w3.org/2000/svg" width="1600" height="1000" viewBox="0 0 1600 1000" role="img" aria-label="NOFIDA generated asset"><rect width="1600" height="1000" rx="48" fill="#0b1220"/><rect x="80" y="340" width="168" height="168" rx="20" fill="#111b2e" stroke="#06b6d4"/><path d="M126 424 H202 M164 386 V462" fill="none" stroke="#f8fafc" stroke-width="16" stroke-linecap="round"/><rect x="320" y="340" width="168" height="168" rx="20" fill="#111b2e" stroke="#06b6d4"/><circle cx="404" cy="424" r="42" fill="none" stroke="#f8fafc" stroke-width="16"/><rect x="560" y="340" width="168" height="168" rx="20" fill="#111b2e" stroke="#06b6d4"/><path d="M598 450 L644 382 L690 450" fill="none" stroke="#f8fafc" stroke-width="16" stroke-linecap="round" stroke-linejoin="round"/><rect x="800" y="340" width="168" height="168" rx="20" fill="#111b2e" stroke="#06b6d4"/><path d="M836 458 C862 378 906 378 932 458" fill="none" stroke="#f8fafc" stroke-width="16" stroke-linecap="round"/><rect x="80" y="560" width="168" height="168" rx="20" fill="#111b2e" stroke="#06b6d4"/><path d="M116 678 C142 598 186 598 212 678" fill="none" stroke="#f8fafc" stroke-width="16" stroke-linecap="round"/><rect x="320" y="560" width="168" height="168" rx="20" fill="#111b2e" stroke="#06b6d4"/><rect x="370" y="610" width="68" height="68" rx="20" fill="none" stroke="#f8fafc" stroke-width="16"/><rect x="560" y="560" width="168" height="168" rx="20" fill="#111b2e" stroke="#06b6d4"/><path d="M606 644 H682 M644 606 V682" fill="none" stroke="#f8fafc" stroke-width="16" stroke-linecap="round"/><rect x="800" y="560" width="168" height="168" rx="20" fill="#111b2e" stroke="#06b6d4"/><circle cx="884" cy="644" r="42" fill="none" stroke="#f8fafc" stroke-width="16"/><text x="80" y="210" fill="#f8fafc" font-family="Inter,Segoe UI,sans-serif" font-size="64" font-weight="700">Support Command Icons</text><text x="80" y="266" fill="#94a3b8" font-family="Inter,Segoe UI,sans-serif" font-size="34">icons · service toolbar</text></svg>