<svg xmlns="http://www.w3.org/2000/svg" width="640" height="400" viewBox="0 0 640 400" role="img" aria-label="NOFIDA generated asset"><rect width="640" height="400" rx="48" fill="#0b1220"/><rect x="32" y="160" width="82" height="82" rx="20" fill="#111b2e" stroke="#f59e0b"/><path d="M55 201 H91 M73 183 V219" fill="none" stroke="#fff7ed" stroke-width="8" stroke-linecap="round"/><rect x="142" y="160" width="82" height="82" rx="20" fill="#111b2e" stroke="#f59e0b"/><circle cx="183" cy="201" r="20" fill="none" stroke="#fff7ed" stroke-width="8"/><rect x="252" y="160" width="82" height="82" rx="20" fill="#111b2e" stroke="#f59e0b"/><path d="M271 213 L293 181 L315 213" fill="none" stroke="#fff7ed" stroke-width="8" stroke-linecap="round" stroke-linejoin="round"/><rect x="362" y="160" width="82" height="82" rx="20" fill="#111b2e" stroke="#f59e0b"/><path d="M379 217 C393 179 413 179 427 217" fill="none" stroke="#fff7ed" stroke-width="8" stroke-linecap="round"/><rect x="32" y="270" width="82" height="82" rx="20" fill="#111b2e" stroke="#f59e0b"/><path d="M49 327 C63 289 83 289 97 327" fill="none" stroke="#fff7ed" stroke-width="8" stroke-linecap="round"/><rect x="142" y="270" width="82" height="82" rx="20" fill="#111b2e" stroke="#f59e0b"/><rect x="167" y="295" width="32" height="32" rx="10" fill="none" stroke="#fff7ed" stroke-width="8"/><rect x="252" y="270" width="82" height="82" rx="20" fill="#111b2e" stroke="#f59e0b"/><path d="M275 311 H311 M293 293 V329" fill="none" stroke="#fff7ed" stroke-width="8" stroke-linecap="round"/><rect x="362" y="270" width="82" height="82" rx="20" fill="#111b2e" stroke="#f59e0b"/><circle cx="403" cy="311" r="20" fill="none" stroke="#fff7ed" stroke-width="8"/><text x="32" y="86" fill="#f8fafc" font-family="Inter,Segoe UI,sans-serif" font-size="26" font-weight="700">Onboarding Cue Icons</text><text x="32" y="118" fill="#94a3b8" font-family="Inter,Segoe UI,sans-serif" font-size="14">icons · friendly outline</text></svg>