<svg xmlns="http://www.w3.org/2000/svg" width="640" height="400" viewBox="0 0 640 400" role="img" aria-label="NOFIDA generated asset"><rect width="640" height="400" rx="48" fill="#0b1220"/><rect x="32" y="160" width="82" height="82" rx="20" fill="#111b2e" stroke="#8b5cf6"/><path d="M49 217 C63 179 83 179 97 217" fill="none" stroke="#f5f3ff" stroke-width="8" stroke-linecap="round"/><rect x="142" y="160" width="82" height="82" rx="20" fill="#111b2e" stroke="#8b5cf6"/><rect x="167" y="185" width="32" height="32" rx="10" fill="none" stroke="#f5f3ff" stroke-width="8"/><rect x="252" y="160" width="82" height="82" rx="20" fill="#111b2e" stroke="#8b5cf6"/><path d="M275 201 H311 M293 183 V219" fill="none" stroke="#f5f3ff" stroke-width="8" stroke-linecap="round"/><rect x="362" y="160" width="82" height="82" rx="20" fill="#111b2e" stroke="#8b5cf6"/><circle cx="403" cy="201" r="20" fill="none" stroke="#f5f3ff" stroke-width="8"/><rect x="32" y="270" width="82" height="82" rx="20" fill="#111b2e" stroke="#8b5cf6"/><circle cx="73" cy="311" r="20" fill="none" stroke="#f5f3ff" stroke-width="8"/><rect x="142" y="270" width="82" height="82" rx="20" fill="#111b2e" stroke="#8b5cf6"/><path d="M161 323 L183 291 L205 323" fill="none" stroke="#f5f3ff" stroke-width="8" stroke-linecap="round" stroke-linejoin="round"/><rect x="252" y="270" width="82" height="82" rx="20" fill="#111b2e" stroke="#8b5cf6"/><path d="M269 327 C283 289 303 289 317 327" fill="none" stroke="#f5f3ff" stroke-width="8" stroke-linecap="round"/><rect x="362" y="270" width="82" height="82" rx="20" fill="#111b2e" stroke="#8b5cf6"/><rect x="387" y="295" width="32" height="32" rx="10" fill="none" stroke="#f5f3ff" stroke-width="8"/><text x="32" y="86" fill="#f8fafc" font-family="Inter,Segoe UI,sans-serif" font-size="26" font-weight="700">Team Space Icons</text><text x="32" y="118" fill="#94a3b8" font-family="Inter,Segoe UI,sans-serif" font-size="14">icons · workspace markers</text></svg>